<?xml version="1.0" encoding="utf-8"?>
<!-- Generator: Adobe Illustrator 17.1.0, SVG Export Plug-In . SVG Version: 6.00 Build 0)  -->
<!DOCTYPE svg PUBLIC "-//W3C//DTD SVG 1.1//EN" "http://www.w3.org/Graphics/SVG/1.1/DTD/svg11.dtd">
<svg version="1.1" id="Layer_1" xmlns="http://www.w3.org/2000/svg" xmlns:xlink="http://www.w3.org/1999/xlink" x="0px" y="0px"
	 viewBox="0 0 507.2 134.7" enable-background="new 0 0 507.2 134.7" xml:space="preserve">
<g>
	<g>
		<path fill="#FAF5DC" d="M87.3,113.8c-0.8,0.5-1.1,0.8-1.8,1.6c-1.7,2.2-3.2,4.8-5.1,8.1c-0.5,1-1,2.5-1,3.6v4.2
			c0,0.7,0.3,1.3,1,1.6c0.4,0.2,2,0.5,2.6,0.5v0.7H72.5v-0.7c0.6,0,2.2-0.2,2.6-0.4c0.8-0.3,1-0.9,1-1.6V126c0-0.6-0.4-1.4-0.8-2.4
			c-1.5-2.9-2.8-5.4-4.2-7.7c-0.5-1-1.2-1.7-1.9-2.2c-0.6-0.3-1.4-0.5-2-0.5v-0.7h10.2v0.7c-1.1,0.1-3.2,0.4-3.2,1.1
			c0,0.4,2.1,4.3,4.9,9.4c3-4.6,5.2-8.4,5.2-8.9c0-1-2-1.4-3.4-1.5v-0.7h8.3v0.7C88.8,113.2,87.6,113.6,87.3,113.8z"/>
		<path fill="#FAF5DC" d="M114.2,131.6c-2.1,1.9-4.6,3.1-7.9,3.1c-2.9,0-5.5-1.1-7.6-3c-2.1-2-3.4-4.7-3.4-8.1c0-3.5,1-6.2,3.1-8.3
			c2.2-2.2,5-3.3,8.1-3.3c3,0,5.7,1,8.1,3.3c1.9,1.9,3,4.8,3,7.9C117.5,126.5,116.5,129.4,114.2,131.6z M106.4,112.9
			c-4.5,0-7.3,3.9-7.3,10.5c0,5.7,2.3,10.3,7.3,10.3c4.9,0,7.3-4.5,7.3-10.4C113.7,118.1,111.7,112.9,106.4,112.9z"/>
		<path fill="#FAF5DC" d="M147.1,113.9c-0.9,0.5-1,2.3-1,4.2v9.7c0,5.2-5.1,6.8-8.2,6.8c-5.6,0-8.4-2.9-8.4-6.2v-13.2
			c0-0.7-0.3-1.2-1-1.6c-0.6-0.3-1.7-0.5-2.2-0.5v-0.7h9.9v0.7c-0.6,0-1.7,0.2-2.3,0.4c-0.8,0.2-1,0.9-1,1.6v12.7
			c0,2.3,0.8,5.5,5.8,5.5c5.1,0,6.2-3.5,6.2-5.6v-9.4c0-2.3-0.4-3.8-1.1-4.3c-0.8-0.5-2.5-0.9-3.2-0.9v-0.7h9.5v0.7
			C149.4,113.2,147.7,113.5,147.1,113.9z"/>
		<path fill="#FAF5DC" d="M176,134.5c-2.5,0-3.8-1.8-4.2-5.4c-0.3-2.5-0.9-5.6-4.6-5.6h-2.5c0,3.4,0,6.6,0,8c0,0.7,0.2,1.3,1,1.6
			c0.4,0.2,1.8,0.3,2.3,0.3v0.7h-10v-0.7c0.6,0,1.9-0.2,2.3-0.3c0.8-0.3,1-0.9,1-1.6c0-3,0-13.5,0-16.4c0-0.7-0.2-1.3-1-1.6
			c-0.6-0.2-1.7-0.4-2.3-0.4v-0.7h11.1c3.2,0,6.8,1.4,6.8,4.9c0,3.5-3.6,4.9-5.9,5.5v0.3c1.5,0.2,4.2,1,4.8,3.3
			c0.5,1.8,0.7,3.3,1.1,4.9c0.4,1.4,1.2,1.5,1.7,1.5c0.9,0,1.4-0.5,1.4-2.8v-0.7h0.8v0.7C179.9,133.1,178.8,134.5,176,134.5z
			 M167.5,113.3h-2.8v9.3h2c2.8,0,5.4-1.1,5.4-4.7C172,114.4,169.9,113.3,167.5,113.3z"/>
		<path fill="#FAF5DC" d="M209.3,134.6c-2.6,0-4.3-0.8-5.2-1.6l-1.1,1.5h-1.1l-0.2-7.4h0.7c1.3,3.4,3.3,6.6,7.3,6.6c2.8,0,4-1.6,4-4
			c0-1.9-1.2-3.4-3.1-4.2c-1.8-0.7-2.8-1.1-4.6-1.9c-2.4-1.1-3.8-2.8-3.8-5.7c0-3.4,2.7-5.9,6.4-5.9c1.7,0,3.5,0.7,4.6,1.6l1.1-1.5
			h1.1l0.2,7.2h-0.7c-1.3-3.6-2.7-6.4-7-6.4c-0.9,0-3,0.8-3,3.2c0,1.9,1,3.1,2.8,4c1.6,0.9,2.9,1.1,4.3,1.8c2.7,1.2,4.5,2.5,4.5,5.9
			C216.5,131.9,213.4,134.6,209.3,134.6z"/>
		<path fill="#FAF5DC" d="M239.8,134.2v-0.7c0.6,0,1.9-0.2,2.3-0.3c0.8-0.3,1-0.9,1-1.6v-8.2h-11v8.1c0,0.7,0.3,1.2,1,1.6
			c0.4,0.2,1.7,0.4,2.3,0.5v0.7h-9.9v-0.7c0.6,0,1.8-0.2,2.2-0.3c0.8-0.3,1-0.9,1-1.6v-16.3c0-0.7-0.2-1.2-1-1.6
			c-0.5-0.2-1.7-0.5-2.2-0.6v-0.7h9.9v0.7c-0.6,0-1.7,0.2-2.3,0.4c-0.8,0.2-1,0.9-1,1.6v7.2h11v-7.1c0-0.7-0.3-1.2-1-1.6
			c-0.5-0.2-1.7-0.5-2.3-0.6v-0.7h9.9v0.7c-0.6,0-1.7,0.2-2.2,0.4c-0.8,0.2-1,0.9-1,1.6v16.3c0,0.7,0.3,1.2,1,1.6
			c0.4,0.2,1.7,0.4,2.2,0.5v0.7H239.8z"/>
		<path fill="#FAF5DC" d="M277.7,131.6c-2.1,1.9-4.6,3.1-7.9,3.1c-2.9,0-5.5-1.1-7.6-3c-2.1-2-3.4-4.7-3.4-8.1c0-3.5,1-6.2,3.1-8.3
			c2.2-2.2,5-3.3,8.1-3.3c3,0,5.7,1,8.1,3.3c1.9,1.9,3,4.8,3,7.9C281,126.5,280,129.4,277.7,131.6z M269.9,112.9
			c-4.5,0-7.3,3.9-7.3,10.5c0,5.7,2.3,10.3,7.3,10.3c4.9,0,7.3-4.5,7.3-10.4C277.2,118.1,275.2,112.9,269.9,112.9z"/>
		<path fill="#FAF5DC" d="M318.8,113.8c-0.8,0.5-1.3,1.3-1.7,2.3c-1.5,3.9-4.2,11.8-6.5,18.3h-1.1c-2-6.6-3.8-12.4-5.1-16.4l-6,16.4
			h-1.2c-2.5-8.3-5-16.3-5.9-19.2c-0.2-0.7-0.5-1.1-1.2-1.6c-0.6-0.3-1.5-0.5-2.1-0.6v-0.7h9.7v0.7c-1.1,0.1-3.1,0.4-3.1,1.2
			c0,0.2,0.1,0.6,0.1,0.8c0.4,1.4,2.1,7,4.4,14.1l4.6-12.6c0-1.1-0.3-2.2-1.5-2.9c-0.5-0.3-1.8-0.6-2.4-0.6v-0.7h9.9v0.7
			c-1.1,0.1-3.1,0.4-3.1,1.2c0,0.2,0.1,0.6,0.1,0.8c0.4,1.3,2.3,6.9,4.6,14c1.8-5,3.1-8.8,3.9-11.4c0.5-1.7,0.6-2.3,0.6-2.9
			c0-1.1-2.1-1.6-3.6-1.7v-0.7h8.6v0.7C320.3,113.2,319.4,113.5,318.8,113.8z"/>
		<path fill="#FAF5DC" d="M345.9,134.5c-2.5,0-3.8-1.8-4.2-5.4c-0.3-2.5-0.9-5.6-4.6-5.6h-2.5c0,3.4,0,6.6,0,8c0,0.7,0.2,1.3,1,1.6
			c0.4,0.2,1.7,0.3,2.3,0.3v0.7h-10v-0.7c0.6,0,1.9-0.2,2.3-0.3c0.8-0.3,1-0.9,1-1.6c0-3,0-13.5,0-16.4c0-0.7-0.2-1.3-1-1.6
			c-0.6-0.2-1.7-0.4-2.3-0.4v-0.7h11.1c3.2,0,6.8,1.4,6.8,4.9c0,3.5-3.6,4.9-5.9,5.5v0.3c1.5,0.2,4.2,1,4.8,3.3
			c0.5,1.8,0.7,3.3,1.1,4.9c0.4,1.4,1.2,1.5,1.7,1.5c0.9,0,1.4-0.5,1.4-2.8v-0.7h0.8v0.7C349.8,133.1,348.7,134.5,345.9,134.5z
			 M337.4,113.3h-2.8v9.3h2c2.8,0,5.4-1.1,5.4-4.7C342,114.4,339.8,113.3,337.4,113.3z"/>
		<path fill="#FAF5DC" d="M376.5,131.6c-2.1,1.9-4.6,3.1-7.9,3.1c-2.9,0-5.5-1.1-7.6-3c-2.1-2-3.4-4.7-3.4-8.1c0-3.5,1-6.2,3.1-8.3
			c2.2-2.2,5-3.3,8.1-3.3c3,0,5.7,1,8.1,3.3c1.9,1.9,3,4.8,3,7.9C379.8,126.5,378.8,129.4,376.5,131.6z M368.7,112.9
			c-4.5,0-7.3,3.9-7.3,10.5c0,5.7,2.3,10.3,7.3,10.3c4.9,0,7.3-4.5,7.3-10.4C375.9,118.1,374,112.9,368.7,112.9z"/>
		<path fill="#FAF5DC" d="M407.5,131.6c-2.1,1.9-4.6,3.1-7.9,3.1c-2.9,0-5.5-1.1-7.6-3c-2.1-2-3.4-4.7-3.4-8.1c0-3.5,1-6.2,3.1-8.3
			c2.2-2.2,5-3.3,8.1-3.3c3,0,5.7,1,8.1,3.3c1.9,1.9,3,4.8,3,7.9C410.8,126.5,409.8,129.4,407.5,131.6z M399.7,112.9
			c-4.5,0-7.3,3.9-7.3,10.5c0,5.7,2.3,10.3,7.3,10.3c4.9,0,7.3-4.5,7.3-10.4C407,118.1,405,112.9,399.7,112.9z"/>
		<path fill="#FAF5DC" d="M437.1,134.2v-0.7c0.6,0,2.3-0.2,2.8-0.4c0.7-0.4,1-0.9,1-1.6v-16.3l-8.2,18.7H432
			c-0.4-1.2-1.1-3.1-1.7-4.4l-6.2-13.8v12.5c0,2.4,0.4,3.8,1.1,4.4c0.5,0.4,2.7,1,3.3,1v0.7h-9.5v-0.7c0.5-0.1,2.2-0.3,3-0.8
			c0.8-0.5,1.1-1.9,1.1-4.4v-11.7c0-1.3-0.3-2.1-1-2.6c-0.8-0.6-2-0.9-2.9-0.9v-0.7h7.2l7.4,16.2l6-13.5c0.5-1.2,0.7-2.4,0.7-2.7
			h7.2v0.7c-0.6,0-1.8,0.2-2.4,0.4c-0.8,0.2-1,0.9-1,1.6v16.3c0,0.7,0.3,1.2,1,1.6c0.4,0.2,1.8,0.4,2.4,0.5v0.7H437.1z"/>
	</g>
	<path fill="#FAF5DC" d="M375.8,117.6c-0.8-1.7-1.8-3.1-3.1-4c-1.3-0.9-2.7-1.4-4.3-1.4c-1.7,0-3.2,0.5-4.5,1.4
		c-1.3,1-2.3,2.3-3,4.1c-0.7,1.7-1.1,3.6-1.1,5.6c0,2.1,0.4,3.9,1.1,5.6c0.7,1.7,1.8,3,3.1,4c1.3,1,2.8,1.5,4.4,1.5
		c1.6,0,3.1-0.5,4.4-1.4c1.3-1,2.3-2.3,3.1-4c0.7-1.7,1.1-3.6,1.1-5.6C376.9,121.2,376.6,119.3,375.8,117.6z"/>
</g>
<g>
	<path fill="#FAF5DC" d="M119.1,0c7.3,0,13.8,1.5,19.6,4.5c5.8,3,10.5,7.3,13.9,13c3.5,5.7,5.2,11.9,5.2,18.6
		c0,6.6-1.7,12.7-5.1,18.3c-3.4,5.6-8,10-13.9,13.1c-5.9,3.1-12.5,4.7-19.9,4.7c-7.3,0-13.9-1.6-19.9-4.7c-6-3.2-10.6-7.5-13.9-13
		c-3.3-5.5-5-11.6-5-18.3c0-6.4,1.7-12.5,5-18.2C88.6,12.2,93.2,7.8,99,4.7C104.8,1.6,111.5,0,119.1,0z M94.3,36.1
		c0,4.7,1.1,8.9,3.2,12.6c2.1,3.7,5,6.6,8.8,8.7c3.8,2,8,3.1,12.8,3.1c7.2,0,13.1-2.3,17.8-6.8c4.6-4.5,7-10.4,7-17.5
		c0-4.7-1-8.9-3.1-12.6c-2.1-3.7-5-6.6-8.9-8.7c-3.8-2-8.1-3.1-12.9-3.1c-4.8,0-9.1,1-12.9,3.1c-3.8,2.1-6.7,5-8.8,8.7
		C95.3,27.2,94.3,31.4,94.3,36.1z"/>
	<path fill="#FAF5DC" d="M60.8,43c-2.3,1-2.8,2.8-2.8,4.9v21.9l-1.2,0.4l-5.1-5.7c-5.5,2.1-14.8,5-22.7,5C15.2,69.4,0,58.2,0,37.3
		C0,17.8,15.3,2.4,35.5,2.4c5.4,0,12.2,2.4,15.1,5.1l3-4.8h3.7l0.5,22.6h-2.2C52.3,15,45,5.1,31.9,5.1C21,5.1,11.5,16.1,11.5,36.6
		c0,17.3,9.4,29.8,21.1,29.8c10.3,0,15.5-5.8,16.1-11.9v-5.7c0-2.4-0.7-4.6-3.1-5.6c-2.3-0.9-7.6-1.4-9.3-1.5v-2.2h31.2v2.2
		C65.8,42,62.6,42.3,60.8,43z"/>
	<path fill="#FAF5DC" d="M225.7,69c-7.5,0-11.1-5.3-12.5-15.9c-0.9-7.4-2.6-16.5-13.6-16.5h-7.4c0,10.2,0,19.5,0,23.6
		c0,2.1,0.7,3.9,2.9,4.7c1.2,0.5,5.2,0.9,6.9,1V68h-29.5v-2.1c1.7-0.1,5.6-0.6,6.8-1c2.3-0.9,2.9-2.6,2.9-4.7c0-9,0-40,0-48.5
		c0-2.1-0.6-4-2.9-4.7c-1.7-0.6-5.1-1.2-6.8-1.3V3.6h32.9c9.5,0,20.2,4.2,20.2,14.5c0,10.3-10.7,14.5-17.4,16.4v0.9
		c4.4,0.5,12.4,2.9,14.2,9.8c1.4,5.2,2,9.8,3.2,14.4c1.1,4.2,3.7,4.5,5.1,4.5c2.6,0,4-1.6,4-8.4v-2h2.5v2
		C237.1,64.7,234,69,225.7,69z M200.4,6.2h-8.3v27.6h5.8c8.3,0,15.9-3.1,15.9-13.9C213.9,9.3,207.6,6.2,200.4,6.2z"/>
	<path fill="#FAF5DC" d="M256.2,68v-2.1c1.7-0.1,5.7-0.5,6.9-0.9c2.3-0.8,2.9-2.4,2.9-4.5V11.9c0-2.1-0.6-3.6-2.9-4.5
		c-1.7-0.7-5.2-1.6-6.9-1.7V3.6h29.6v2.1c-1.7,0.1-5.2,0.7-6.9,1.2c-2.4,0.8-2.9,2.4-2.9,4.5V60c0,2.1,0.8,3.6,2.9,4.5
		c1.1,0.5,5.2,1.3,6.9,1.4V68H256.2z"/>
	<path fill="#FAF5DC" d="M362.3,68h-53.8v-2.1c1.7-0.1,5.6-0.6,6.8-1c2.3-0.9,2.9-2.6,2.9-4.7v-48c0-2.1-0.6-3.7-2.9-4.7
		c-1.7-0.8-5.1-1.7-6.8-1.8V3.6H338v2.1c-1.7,0.1-5.2,0.8-6.9,1.3c-2.4,0.8-2.9,2.6-2.9,4.7v45.1c0,8,1,8.7,11.2,8.7
		c5.5,0,12-0.5,13.9-2.4c2.5-2.6,7.3-10.1,8.2-13.3h2.3L362.3,68z"/>
	<path fill="#FAF5DC" d="M434.8,68H381v-2.1c1.7-0.1,5.6-0.6,6.8-1c2.3-0.9,2.9-2.6,2.9-4.7v-48c0-2.1-0.6-3.7-2.9-4.7
		c-1.7-0.8-5.1-1.7-6.8-1.8V3.6h29.5v2.1c-1.7,0.1-5.2,0.8-6.9,1.3c-2.4,0.8-2.9,2.6-2.9,4.7v45.1c0,8,1,8.7,11.2,8.7
		c5.5,0,12-0.5,13.9-2.4c2.5-2.6,7.3-10.1,8.2-13.3h2.3L434.8,68z"/>
	<path fill="#FAF5DC" d="M501.7,7.6c-2.5,1.4-3.3,2.4-5.3,4.8c-5.2,6.4-9.5,14.2-15,24.1c-1.6,3-2.8,7.4-2.8,10.6v12.5
		c0,2.2,0.8,3.8,2.9,4.7c1.1,0.5,6,1.5,7.7,1.6V68H458v-2.1c1.7-0.1,6.5-0.7,7.7-1.1c2.3-0.9,2.9-2.6,2.9-4.7V43.7
		c0-1.9-1-4.2-2.5-7.1c-4.3-8.5-8.4-16-12.4-22.9c-1.6-2.8-3.5-5.1-5.8-6.4c-1.7-0.9-4.2-1.5-6-1.6V3.6h30.4v2.1
		c-3.3,0.2-9.5,1-9.5,3.3c0,1.3,6.2,12.8,14.6,27.7c8.8-13.8,15.5-25,15.5-26.5c0-3.1-5.8-4.2-10.2-4.5V3.6h24.5v2.1
		C506.1,5.8,502.8,6.9,501.7,7.6z"/>
</g>
</svg>
